<svg xmlns="http://www.w3.org/2000/svg" width="65.088" height="53.335" viewBox="0 0 65.088 53.335"><g transform="translate(0 -46.228)"><g transform="translate(0 46.228)"><g transform="translate(0 0)"><path d="M51.609,64.183A18.2,18.2,0,0,0,15.6,60.693h-.175a15.425,15.425,0,1,0,0,30.851h5.661a1.388,1.388,0,1,0,0-2.776H15.425a12.649,12.649,0,1,1,0-25.3c.372,0,.764.02,1.2.061a1.39,1.39,0,0,0,1.505-1.194,15.422,15.422,0,0,1,30.7,2.1c0,.306-.057,1.1-.057,1.1A1.388,1.388,0,0,0,50.3,67.013a11.075,11.075,0,0,1,1.107-.056,10.9,10.9,0,1,1,0,21.809H45.191a1.388,1.388,0,1,0,0,2.776h6.217a13.68,13.68,0,0,0,.2-27.359Z" transform="translate(0 -46.228)"/></g></g><g transform="translate(21.832 52.752)"><path d="M183.31,97.548a11.708,11.708,0,0,0-11.557,10.09,1.388,1.388,0,0,0,2.751.375,8.922,8.922,0,0,1,8.807-7.689,1.388,1.388,0,0,0,0-2.776Z" transform="translate(-171.74 -97.548)"/></g><g transform="translate(26.099 76.916)"><path d="M219.027,303.221a1.388,1.388,0,0,0-1.96-.11l-3.339,2.983V289.016a1.388,1.388,0,0,0-2.776,0v17.077l-3.339-2.983a1.388,1.388,0,0,0-1.85,2.07l5.049,4.511a2.291,2.291,0,0,0,3.054,0l5.049-4.511A1.388,1.388,0,0,0,219.027,303.221Z" transform="translate(-205.3 -287.628)"/></g></g></svg>