<svg xmlns="http://www.w3.org/2000/svg" width="55.282" height="77.498" viewBox="0 0 55.282 77.498"><g transform="translate(-0.079 -0.001)"><path d="M.337,35.3a4.043,4.043,0,0,0,1.17,4.5C3.971,42.273,9.04,51.177,11.55,57.451c1.712,4.279,5.472,8.48,8.325,11.251a6.41,6.41,0,0,1,1.913,4.583v.472a3.874,3.874,0,0,0,3.874,3.874h20.66A3.874,3.874,0,0,0,50.2,73.757V69.79a1.184,1.184,0,0,1,.345-.879c4.766-4.358,4.82-11.633,4.82-11.941V36.529a5.3,5.3,0,0,0-4.789-5.37,5.162,5.162,0,0,0-2.958.7V29.855a5.135,5.135,0,0,0-7.8-4.417,5.1,5.1,0,0,0-7.692-3.9V19.4a10.2,10.2,0,0,0,5.166-8.909,10.33,10.33,0,0,0-20.66,0A10.2,10.2,0,0,0,21.788,19.4V40.185a14.286,14.286,0,0,1-.615,4.5,1.305,1.305,0,0,1-.931.868,1.244,1.244,0,0,1-1.162-.305,18.353,18.353,0,0,1-2.67-3.2C14.169,38.7,8.531,32.437,5,32.437A5.058,5.058,0,0,0,.337,35.3ZM19.205,10.486a7.747,7.747,0,1,1,15.495,0,7.669,7.669,0,0,1-2.582,5.783V10.486a5.165,5.165,0,1,0-10.33,0v5.783A7.671,7.671,0,0,1,19.205,10.486Zm-4.948,33a20.98,20.98,0,0,0,3.051,3.648,3.821,3.821,0,0,0,3.561.929,3.892,3.892,0,0,0,2.75-2.546,16.818,16.818,0,0,0,.75-5.329v-29.7a2.582,2.582,0,1,1,5.165,0V37.6a1.291,1.291,0,1,0,2.582,0V25.981a2.583,2.583,0,0,1,5.166,0V37.6a1.291,1.291,0,1,0,2.582,0V29.855a2.582,2.582,0,0,1,5.165,0v9.039a1.291,1.291,0,0,0,2.582,0V36.311a2.561,2.561,0,0,1,.758-1.825,2.613,2.613,0,0,1,2.014-.751,2.75,2.75,0,0,1,2.393,2.794V56.971c0,.063-.066,6.456-3.982,10.036a3.768,3.768,0,0,0-1.183,2.783v3.967a1.291,1.291,0,0,1-1.292,1.292H25.662a1.291,1.291,0,0,1-1.292-1.292v-.472a9.012,9.012,0,0,0-2.7-6.436c-2.188-2.124-6.1-6.3-7.724-10.358-2.658-6.64-7.915-15.809-10.617-18.51-.615-.614-.82-1.183-.611-1.689A2.546,2.546,0,0,1,5,35.02C6.756,35.02,11.515,39.37,14.257,43.484Zm0,0" transform="translate(0 -0.132)"/><path d="M315.5,309.154a1.291,1.291,0,0,0,1.292-1.292v-7.747a1.291,1.291,0,0,0-2.582,0v7.747A1.291,1.291,0,0,0,315.5,309.154Zm0,0" transform="translate(-266.598 -253.606)"/><path d="M306.97,389.423a1.289,1.289,0,0,0,.913-.378,5.242,5.242,0,0,0,1.67-3.5,1.275,1.275,0,0,0-1.26-1.273,1.3,1.3,0,0,0-1.322,1.243,2.841,2.841,0,0,1-.913,1.7,1.291,1.291,0,0,0,.913,2.2Zm0,0" transform="translate(-259.357 -326.127)"/><path d="M178.967,463.539h1.291a1.291,1.291,0,1,0,0-2.582h-1.291a1.291,1.291,0,1,0,0,2.582Zm0,0" transform="translate(-150.723 -391.205)"/><path d="M221.635,463.539h9.039a1.291,1.291,0,1,0,0-2.582h-9.039a1.291,1.291,0,0,0,0,2.582Zm0,0" transform="translate(-186.935 -391.205)"/><path d="M80.443,21.38a1.291,1.291,0,0,0,.942-2.176,12.881,12.881,0,0,1-.566-17.066A1.291,1.291,0,1,0,78.829.493,15.465,15.465,0,0,0,79.5,20.974,1.292,1.292,0,0,0,80.443,21.38Zm0,0" transform="translate(-63.82 0)"/><path d="M243.786,17.96a1.291,1.291,0,0,0,1.738-.56A15.442,15.442,0,0,0,243.678.493a1.291,1.291,0,1,0-1.99,1.645,12.862,12.862,0,0,1,1.538,14.084A1.291,1.291,0,0,0,243.786,17.96Zm0,0" transform="translate(-204.782 0)"/></g></svg>