<svg xmlns="http://www.w3.org/2000/svg" width="59.348" height="59.348" viewBox="0 0 59.348 59.348"><path d="M29.674,0A29.674,29.674,0,1,0,59.348,29.674,29.674,29.674,0,0,0,29.674,0Zm1.273,56.738V51.519a1.273,1.273,0,1,0-2.546,0v5.219A27.115,27.115,0,0,1,2.61,30.947H7.829a1.273,1.273,0,0,0,0-2.546H2.61A27.115,27.115,0,0,1,28.4,2.61V7.829a1.273,1.273,0,0,0,2.546,0V2.61A27.115,27.115,0,0,1,56.738,28.4H51.519a1.273,1.273,0,1,0,0,2.546h5.232A27.115,27.115,0,0,1,30.947,56.738Z"/><g transform="translate(28.401 15.034)"><path d="M193.183,120.959,181.026,108.6V95.753a1.273,1.273,0,1,0-2.546,0V109.12a1.273,1.273,0,0,0,.369.891l12.514,12.73a1.274,1.274,0,1,0,1.82-1.782Z" transform="translate(-178.48 -94.48)"/></g></svg>