<svg xmlns="http://www.w3.org/2000/svg" width="63.561" height="58.751" viewBox="0 0 63.561 58.751"><g transform="translate(0 -18.4)"><g transform="translate(0 18.4)"><path d="M51.693,33.744A18.411,18.411,0,0,0,17.58,27.628a10.547,10.547,0,0,0-1.934-.183A10.091,10.091,0,0,0,5.568,37.522a11.015,11.015,0,0,0,.209,2.091A14.023,14.023,0,0,0,0,50.919a14.992,14.992,0,0,0,3.8,9.92,13.575,13.575,0,0,0,9.411,4.731H24.559a1.764,1.764,0,1,0,0-3.529H13.371c-5.346-.327-9.842-5.411-9.842-11.136a10.476,10.476,0,0,1,5.189-9.018,1.779,1.779,0,0,0,.771-2.144A6.4,6.4,0,0,1,9.1,37.5a6.56,6.56,0,0,1,6.548-6.548,6.436,6.436,0,0,1,2.235.392,1.773,1.773,0,0,0,2.209-.9,14.881,14.881,0,0,1,28.271,4.9,1.762,1.762,0,0,0,1.464,1.568,12.72,12.72,0,0,1-1.2,25.121H38.989a1.764,1.764,0,1,0,0,3.529h9.829A15.637,15.637,0,0,0,59.3,60.382a16.267,16.267,0,0,0-7.607-26.637Z" transform="translate(0 -18.4)"/><path d="M179.918,197.764a1.759,1.759,0,0,0,0-2.5l-9.345-9.345a1.785,1.785,0,0,0-1.242-.523,1.731,1.731,0,0,0-1.242.523l-9.345,9.345a1.771,1.771,0,0,0,1.242,3.019,1.722,1.722,0,0,0,1.242-.523l6.339-6.339v29.134a1.764,1.764,0,1,0,3.529,0V191.425l6.339,6.339A1.744,1.744,0,0,0,179.918,197.764Z" transform="translate(-137.545 -163.573)"/></g></g></svg>